{
    "asset" : {
        "generator" : "Khronos glTF Blender I/O v3.2.40",
        "version" : "2.0"
    },
    "scene" : 0,
    "scenes" : [
        {
            "name" : "Scene",
            "nodes" : [
                0,
                1,
                2,
                3,
                4,
                5,
                6,
                7
            ]
        }
    ],
    "nodes" : [
        {
            "mesh" : 0,
            "name" : "Cube",
            "scale" : [
                0.11257584393024445,
                0.11257584393024445,
                0.15053513646125793
            ],
            "translation" : [
                1.965785264968872,
                0.6793081164360046,
                0.06537449359893799
            ]
        },
        {
            "mesh" : 1,
            "name" : "Magazine",
            "scale" : [
                0.12374909967184067,
                0.12374909967184067,
                0.109033964574337
            ],
            "translation" : [
                0.43561863899230957,
                -0.44066545367240906,
                0.06537449359893799
            ]
        },
        {
            "mesh" : 2,
            "name" : "FrontSights",
            "scale" : [
                0.043635815382003784,
                0.043635815382003784,
                0.07770292460918427
            ],
            "translation" : [
                -3.3868536949157715,
                0.48455268144607544,
                0.06819179654121399
            ]
        },
        {
            "mesh" : 3,
            "name" : "BarrelCover",
            "scale" : [
                0.23640131950378418,
                0.23640131950378418,
                0.20829059183597565
            ],
            "translation" : [
                -1.307189702987671,
                0.47894370555877686,
                0.06537449359893799
            ]
        },
        {
            "mesh" : 4,
            "name" : "Barrel",
            "rotation" : [
                0,
                0,
                -0.7071066498756409,
                0.70710688829422
            ],
            "scale" : [
                0.15909165143966675,
                0.15909165143966675,
                0.14017389714717865
            ],
            "translation" : [
                1.2526757717132568,
                0.4762638807296753,
                0.06681302189826965
            ]
        },
        {
            "mesh" : 5,
            "name" : "Rear_Sights",
            "scale" : [
                -0.1296384185552597,
                -0.1296384185552597,
                -0.11422298103570938
            ],
            "translation" : [
                1.6217899322509766,
                0.9487634301185608,
                0.063140869140625
            ]
        },
        {
            "mesh" : 6,
            "name" : "Stock",
            "scale" : [
                0.15921467542648315,
                0.15921467542648315,
                0.1402822881937027
            ],
            "translation" : [
                2.1528236865997314,
                0.49003148078918457,
                0.0594562292098999
            ]
        },
        {
            "mesh" : 7,
            "name" : "Reciever",
            "scale" : [
                0.22499465942382812,
                0.22499465942382812,
                0.1595250964164734
            ],
            "translation" : [
                0.42656779289245605,
                0.015331625938415527,
                0.06537449359893799
            ]
        }
    ],
    "meshes" : [
        {
            "name" : "Cube.008",
            "primitives" : [
                {
                    "attributes" : {
                        "POSITION" : 0,
                        "NORMAL" : 1,
                        "TEXCOORD_0" : 2
                    },
                    "indices" : 3
                }
            ]
        },
        {
            "name" : "Cube.007",
            "primitives" : [
                {
                    "attributes" : {
                        "POSITION" : 4,
                        "NORMAL" : 5,
                        "TEXCOORD_0" : 6
                    },
                    "indices" : 7
                }
            ]
        },
        {
            "name" : "Cube.005",
            "primitives" : [
                {
                    "attributes" : {
                        "POSITION" : 8,
                        "NORMAL" : 9,
                        "TEXCOORD_0" : 10
                    },
                    "indices" : 11
                }
            ]
        },
        {
            "name" : "Cube.004",
            "primitives" : [
                {
                    "attributes" : {
                        "POSITION" : 12,
                        "NORMAL" : 13,
                        "TEXCOORD_0" : 14
                    },
                    "indices" : 15
                }
            ]
        },
        {
            "name" : "Cylinder",
            "primitives" : [
                {
                    "attributes" : {
                        "POSITION" : 16,
                        "NORMAL" : 17,
                        "TEXCOORD_0" : 18
                    },
                    "indices" : 19
                }
            ]
        },
        {
            "name" : "Cube.002",
            "primitives" : [
                {
                    "attributes" : {
                        "POSITION" : 20,
                        "NORMAL" : 21,
                        "TEXCOORD_0" : 22
                    },
                    "indices" : 23
                }
            ]
        },
        {
            "name" : "Cube.001",
            "primitives" : [
                {
                    "attributes" : {
                        "POSITION" : 24,
                        "NORMAL" : 25,
                        "TEXCOORD_0" : 26
                    },
                    "indices" : 27
                }
            ]
        },
        {
            "name" : "Cube",
            "primitives" : [
                {
                    "attributes" : {
                        "POSITION" : 28,
                        "NORMAL" : 29,
                        "TEXCOORD_0" : 30
                    },
                    "indices" : 31
                }
            ]
        }
    ],
    "accessors" : [
        {
            "bufferView" : 0,
            "componentType" : 5126,
            "count" : 112,
            "max" : [
                0.6094073057174683,
                1.0075148344039917,
                0.9999998807907104
            ],
            "min" : [
                -5.848735809326172,
                -0.25326743721961975,
                -0.9999998807907104
            ],
            "type" : "VEC3"
        },
        {
            "bufferView" : 1,
            "componentType" : 5126,
            "count" : 112,
            "type" : "VEC3"
        },
        {
            "bufferView" : 2,
            "componentType" : 5126,
            "count" : 112,
            "type" : "VEC2"
        },
        {
            "bufferView" : 3,
            "componentType" : 5123,
            "count" : 156,
            "type" : "SCALAR"
        },
        {
            "bufferView" : 4,
            "componentType" : 5126,
            "count" : 416,
            "max" : [
                3.492006540298462,
                1.9236104488372803,
                1
            ],
            "min" : [
                -3.2828869819641113,
                -8.179765701293945,
                -1
            ],
            "type" : "VEC3"
        },
        {
            "bufferView" : 5,
            "componentType" : 5126,
            "count" : 416,
            "type" : "VEC3"
        },
        {
            "bufferView" : 6,
            "componentType" : 5126,
            "count" : 416,
            "type" : "VEC2"
        },
        {
            "bufferView" : 7,
            "componentType" : 5123,
            "count" : 672,
            "type" : "SCALAR"
        },
        {
            "bufferView" : 8,
            "componentType" : 5126,
            "count" : 1663,
            "max" : [
                9.764181137084961,
                13.91683578491211,
                1
            ],
            "min" : [
                -2.5171737670898438,
                -10.018141746520996,
                -1
            ],
            "type" : "VEC3"
        },
        {
            "bufferView" : 9,
            "componentType" : 5126,
            "count" : 1663,
            "type" : "VEC3"
        },
        {
            "bufferView" : 10,
            "componentType" : 5126,
            "count" : 1663,
            "type" : "VEC2"
        },
        {
            "bufferView" : 11,
            "componentType" : 5123,
            "count" : 2856,
            "type" : "SCALAR"
        },
        {
            "bufferView" : 12,
            "componentType" : 5126,
            "count" : 431,
            "max" : [
                5.940189361572266,
                1.1531620025634766,
                1.0883088111877441
            ],
            "min" : [
                -7.178849220275879,
                -1.2321059703826904,
                -1.1925020217895508
            ],
            "type" : "VEC3"
        },
        {
            "bufferView" : 13,
            "componentType" : 5126,
            "count" : 431,
            "type" : "VEC3"
        },
        {
            "bufferView" : 14,
            "componentType" : 5126,
            "count" : 431,
            "type" : "VEC2"
        },
        {
            "bufferView" : 15,
            "componentType" : 5123,
            "count" : 696,
            "type" : "SCALAR"
        },
        {
            "bufferView" : 16,
            "componentType" : 5126,
            "count" : 850,
            "max" : [
                1.0000007152557373,
                4.886564254760742,
                1.0000004768371582
            ],
            "min" : [
                -2.1708080768585205,
                -38.734588623046875,
                -1.0000008344650269
            ],
            "type" : "VEC3"
        },
        {
            "bufferView" : 17,
            "componentType" : 5126,
            "count" : 850,
            "type" : "VEC3"
        },
        {
            "bufferView" : 18,
            "componentType" : 5126,
            "count" : 850,
            "type" : "VEC2"
        },
        {
            "bufferView" : 19,
            "componentType" : 5123,
            "count" : 1296,
            "type" : "SCALAR"
        },
        {
            "bufferView" : 20,
            "componentType" : 5126,
            "count" : 951,
            "max" : [
                11.71871566772461,
                1.9782180786132812,
                1.4109044075012207
            ],
            "min" : [
                -1.8515052795410156,
                -1.8396790027618408,
                -1.5207374095916748
            ],
            "type" : "VEC3"
        },
        {
            "bufferView" : 21,
            "componentType" : 5126,
            "count" : 951,
            "type" : "VEC3"
        },
        {
            "bufferView" : 22,
            "componentType" : 5126,
            "count" : 951,
            "type" : "VEC2"
        },
        {
            "bufferView" : 23,
            "componentType" : 5123,
            "count" : 1788,
            "type" : "SCALAR"
        },
        {
            "bufferView" : 24,
            "componentType" : 5126,
            "count" : 331,
            "max" : [
                16.71865463256836,
                1,
                1
            ],
            "min" : [
                -1.5400805473327637,
                -7.050104141235352,
                -1
            ],
            "type" : "VEC3"
        },
        {
            "bufferView" : 25,
            "componentType" : 5126,
            "count" : 331,
            "type" : "VEC3"
        },
        {
            "bufferView" : 26,
            "componentType" : 5126,
            "count" : 331,
            "type" : "VEC2"
        },
        {
            "bufferView" : 27,
            "componentType" : 5123,
            "count" : 612,
            "type" : "SCALAR"
        },
        {
            "bufferView" : 28,
            "componentType" : 5126,
            "count" : 1721,
            "max" : [
                8.64950180053711,
                2.8020901679992676,
                1
            ],
            "min" : [
                -1.5792391300201416,
                -4.709726810455322,
                -1
            ],
            "type" : "VEC3"
        },
        {
            "bufferView" : 29,
            "componentType" : 5126,
            "count" : 1721,
            "type" : "VEC3"
        },
        {
            "bufferView" : 30,
            "componentType" : 5126,
            "count" : 1721,
            "type" : "VEC2"
        },
        {
            "bufferView" : 31,
            "componentType" : 5123,
            "count" : 3504,
            "type" : "SCALAR"
        }
    ],
    "bufferViews" : [
        {
            "buffer" : 0,
            "byteLength" : 1344,
            "byteOffset" : 0
        },
        {
            "buffer" : 0,
            "byteLength" : 1344,
            "byteOffset" : 1344
        },
        {
            "buffer" : 0,
            "byteLength" : 896,
            "byteOffset" : 2688
        },
        {
            "buffer" : 0,
            "byteLength" : 312,
            "byteOffset" : 3584
        },
        {
            "buffer" : 0,
            "byteLength" : 4992,
            "byteOffset" : 3896
        },
        {
            "buffer" : 0,
            "byteLength" : 4992,
            "byteOffset" : 8888
        },
        {
            "buffer" : 0,
            "byteLength" : 3328,
            "byteOffset" : 13880
        },
        {
            "buffer" : 0,
            "byteLength" : 1344,
            "byteOffset" : 17208
        },
        {
            "buffer" : 0,
            "byteLength" : 19956,
            "byteOffset" : 18552
        },
        {
            "buffer" : 0,
            "byteLength" : 19956,
            "byteOffset" : 38508
        },
        {
            "buffer" : 0,
            "byteLength" : 13304,
            "byteOffset" : 58464
        },
        {
            "buffer" : 0,
            "byteLength" : 5712,
            "byteOffset" : 71768
        },
        {
            "buffer" : 0,
            "byteLength" : 5172,
            "byteOffset" : 77480
        },
        {
            "buffer" : 0,
            "byteLength" : 5172,
            "byteOffset" : 82652
        },
        {
            "buffer" : 0,
            "byteLength" : 3448,
            "byteOffset" : 87824
        },
        {
            "buffer" : 0,
            "byteLength" : 1392,
            "byteOffset" : 91272
        },
        {
            "buffer" : 0,
            "byteLength" : 10200,
            "byteOffset" : 92664
        },
        {
            "buffer" : 0,
            "byteLength" : 10200,
            "byteOffset" : 102864
        },
        {
            "buffer" : 0,
            "byteLength" : 6800,
            "byteOffset" : 113064
        },
        {
            "buffer" : 0,
            "byteLength" : 2592,
            "byteOffset" : 119864
        },
        {
            "buffer" : 0,
            "byteLength" : 11412,
            "byteOffset" : 122456
        },
        {
            "buffer" : 0,
            "byteLength" : 11412,
            "byteOffset" : 133868
        },
        {
            "buffer" : 0,
            "byteLength" : 7608,
            "byteOffset" : 145280
        },
        {
            "buffer" : 0,
            "byteLength" : 3576,
            "byteOffset" : 152888
        },
        {
            "buffer" : 0,
            "byteLength" : 3972,
            "byteOffset" : 156464
        },
        {
            "buffer" : 0,
            "byteLength" : 3972,
            "byteOffset" : 160436
        },
        {
            "buffer" : 0,
            "byteLength" : 2648,
            "byteOffset" : 164408
        },
        {
            "buffer" : 0,
            "byteLength" : 1224,
            "byteOffset" : 167056
        },
        {
            "buffer" : 0,
            "byteLength" : 20652,
            "byteOffset" : 168280
        },
        {
            "buffer" : 0,
            "byteLength" : 20652,
            "byteOffset" : 188932
        },
        {
            "buffer" : 0,
            "byteLength" : 13768,
            "byteOffset" : 209584
        },
        {
            "buffer" : 0,
            "byteLength" : 7008,
            "byteOffset" : 223352
        }
    ],
    "buffers" : [
        {
            "byteLength" : 230360,
            "uri" : "data:application/octet-stream;base64,"
        }
    ]
}
